<?xml version="1.0" encoding="UTF-8"?>
<svg id="Capa_2" data-name="Capa 2" xmlns="http://www.w3.org/2000/svg" viewBox="0 0 198.66 198.66">
  <defs>
    <style>
      .cls-1 {
        fill: #d29e0e;
      }

      .cls-2 {
        fill: #c9961a;
      }
    </style>
  </defs>
  <g id="Capa_1-2" data-name="Capa 1">
    <g>
      <path class="cls-2" d="M99.33,198.66C44.56,198.66,0,154.1,0,99.33S44.56,0,99.33,0s99.33,44.56,99.33,99.33-44.56,99.33-99.33,99.33ZM99.33,3.85C46.68,3.85,3.85,46.68,3.85,99.33s42.83,95.48,95.48,95.48,95.48-42.83,95.48-95.48S151.98,3.85,99.33,3.85Z"/>
      <g id="YYRUjI">
        <g>
          <path class="cls-1" d="M130.78,105.8c6.21,0,12.3,0,18.39,0,2.55,0,4.81.76,6.74,2.43,2.44,2.12,3.49,4.84,3.47,8.05-.03,5.14,0,10.28,0,15.42,0,3.77.02,7.54,0,11.32-.04,6.41-4.21,10.55-10.63,10.55-11.48,0-22.96,0-34.44,0-6.47,0-10.62-4.17-10.65-10.67-.01-2.31,0-4.62,0-7.02-13.89,3.98-26.35,1.34-37.34-7.63-8.43-6.88-13.35-15.85-14.26-26.78-2.05-24.54,17.65-44.48,41.71-43.43,23.92,1.04,42.03,24.3,37.02,47.75ZM118.5,105.8c.37-2.02.71-3.94,1.07-5.91-1.73-.15-3.73.38-3.88-1.84-.18-2.69,2.16-2.07,3.73-2.25-.18-7.17-4.39-15.06-10.61-19.91-4.41-3.43-9.38-5.4-15.04-5.77-.17,1.64.3,3.65-1.91,3.76-2.59.13-1.99-2.18-2.24-3.7-14.19.68-25.37,13.35-25.5,25.63,1.43.14,3.44-.43,3.6,1.8.19,2.69-2.15,2.08-3.79,2.27.8,8.08,4.19,14.63,10.4,19.65,4.45,3.6,9.54,5.61,15.28,6.02.32-3.05.75-3.9,2.07-3.81,2.41.16,1.92,2.15,2.06,3.64,2.12.22,8.13-1.19,9.51-2.28.26-.2.37-.7.38-1.07.05-2.28-.06-4.56.09-6.84.35-5.44,4.54-9.34,9.97-9.4,1.53-.02,3.06,0,4.81,0ZM131.45,149.59c5.8,0,11.6,0,17.41,0,4.08,0,6.52-2.4,6.53-6.47.02-8.95.02-17.91,0-26.86,0-4.08-2.45-6.47-6.52-6.47-11.56,0-23.13,0-34.69,0-4.07,0-6.53,2.41-6.54,6.47-.02,8.95-.02,17.91,0,26.86,0,4.06,2.48,6.47,6.54,6.48,5.76,0,11.52,0,17.28,0ZM103.64,127.35c-6.29,2.59-12.6,3.05-19.01,1.48-6.44-1.57-11.94-4.83-16.46-9.7-4.5-4.85-7.32-10.54-8.08-17.13-2.22-19.34,11.93-34.77,29.48-35.96,8.87-.6,16.75,2.02,23.26,8.09,9.23,8.6,12.5,19.19,9.82,31.59h3.91c1.12-3.92,1.28-9.47.5-13.85-3.17-17.96-20.28-32.87-41.21-29.39-20.33,3.38-34.21,23.38-28.85,44.23,3.42,13.28,12.41,21.61,25.36,25.62,6.7,2.08,13.49,1.86,20.17-.42.42-.14,1.01-.58,1.05-.93.13-1.14.05-2.3.05-3.65Z"/>
          <path class="cls-1" d="M86.35,144.95c-.65-.62-1.33-1.22-1.95-1.88-.86-.92-.87-1.94-.08-2.77.82-.87,1.93-.93,2.85-.03,1.99,1.94,3.96,3.9,5.89,5.89.85.88.84,2-.03,2.89-1.94,1.99-3.9,3.96-5.9,5.89-.88.85-2.01.81-2.78.03-.8-.82-.8-1.99.06-2.88.82-.86,1.69-1.68,2.62-2.59-2.75-.56-5.34-1.03-7.89-1.63-20.25-4.78-35.13-20.69-38.2-41.29-2.46-16.55,1.45-31.47,12.75-44.07,8.01-8.93,18.3-13.72,30.03-15.67,11.31-1.88,22.11-.21,32.12,5.29,15.82,8.68,24.94,22.1,27.25,40.06.22,1.72.25,3.47.31,5.21.05,1.47-.7,2.38-1.9,2.42-1.18.04-2.03-.83-2.05-2.31-.07-5.39-.85-10.67-2.8-15.7-6.6-17.03-18.78-27.86-36.81-30.89-17-2.86-31.92,2.11-43.78,14.94-6.12,6.62-9.65,14.63-11.13,23.48-1.98,11.86-.19,23.13,6,33.53,6,10.1,14.84,16.68,25.97,20.22,3.02.96,6.15,1.57,9.23,2.34l.22-.48Z"/>
          <path class="cls-1" d="M92.42,94.35c1.22-1.23,2.34-2.38,3.48-3.51,1.17-1.16,2.19-1.27,3.12-.37.92.89.84,2.01-.27,3.13-1.78,1.79-3.56,3.58-5.36,5.35-1.4,1.37-2.86,1.12-3.63-.66-1.93-4.43-3.83-8.88-5.72-13.33-.58-1.37-.2-2.39.99-2.88,1.11-.46,2.06-.02,2.64,1.31,1.41,3.22,2.78,6.45,4.16,9.68.16.37.34.74.58,1.26Z"/>
          <path class="cls-1" d="M127.98,128.27c3.3-3.3,6.44-6.5,9.63-9.63,3.18-3.11,7.83-2.31,9.74,1.63,1.07,2.22.76,4.66-1.09,6.54-4.71,4.79-9.45,9.55-14.25,14.25-2.21,2.16-5.77,2.11-8.01-.03-2.46-2.35-4.87-4.75-7.21-7.21-2.4-2.53-2.29-5.96.14-8.34,2.39-2.34,5.74-2.4,8.26-.08.94.87,1.79,1.84,2.79,2.87ZM128.11,138.83c.61-.41,1.21-.7,1.67-1.14,1.73-1.67,3.41-3.39,5.11-5.09,2.75-2.76,5.52-5.5,8.25-8.27,1.24-1.26.93-2.95-.6-3.5-.98-.34-1.66.15-2.31.8-3.36,3.38-6.73,6.74-10.1,10.11-1.7,1.7-2.48,1.7-4.15.04-1.12-1.11-2.21-2.24-3.35-3.33-1-.96-2.13-1-2.96-.16-.82.83-.77,1.99.19,2.97,2.18,2.21,4.37,4.42,6.6,6.58.42.41,1.02.62,1.65.98Z"/>
        </g>
      </g>
    </g>
  </g>
</svg>