<?xml version="1.0" encoding="UTF-8"?>
<svg id="Capa_2" data-name="Capa 2" xmlns="http://www.w3.org/2000/svg" viewBox="0 0 198.66 198.66">
  <defs>
    <style>
      .cls-1 {
        fill: #d29e0e;
      }

      .cls-2 {
        fill: #c9961a;
      }
    </style>
  </defs>
  <g id="Capa_1-2" data-name="Capa 1">
    <g>
      <path class="cls-2" d="M99.33,198.66C44.56,198.66,0,154.1,0,99.33S44.56,0,99.33,0s99.33,44.56,99.33,99.33-44.56,99.33-99.33,99.33ZM99.33,3.85C46.68,3.85,3.85,46.68,3.85,99.33s42.83,95.48,95.48,95.48,95.48-42.83,95.48-95.48S151.98,3.85,99.33,3.85Z"/>
      <g id="QknbyL">
        <g>
          <path class="cls-1" d="M158.77,123.14c-1,2.64-2.96,3.58-5.72,3.49-3.74-.12-7.49-.03-11.16-.03-.91,2.37-1.66,4.72-2.7,6.94-3.95,8.5-10.31,14.92-17.89,20.23-5.78,4.05-12.04,7.19-18.64,9.68-2.13.8-4.15.86-6.3.04-10.97-4.15-20.92-9.87-28.98-18.55-4.99-5.37-7.88-10.57-10.25-18.35-.44,0-.93,0-1.42,0-3.55,0-7.11-.01-10.66,0-1.88.01-3.42-.63-4.36-2.31-.92-1.64-.7-3.25.28-4.82.82-1.31,1.56-2.66,2.39-3.97.36-.56.37-1.01,0-1.58-.87-1.37-1.7-2.76-2.51-4.16-1.89-3.28.05-6.79,3.84-6.9,2.35-.07,4.71-.01,7.25-.01,0-1.82-.05-3.59.02-5.34.04-.91.04-1.95.48-2.69.66-1.12,1.57-2.17,2.59-2.98.63-.5.88-.88.88-1.64-.02-9.69-.02-19.39-.01-29.08,0-3.92,1.91-6.06,5.79-6.61,9.78-1.4,19.53-3,28.97-6.01,2.59-.82,5.07-1.98,7.6-2.99.77,0,1.55,0,2.32,0,2.31.93,4.58,1.99,6.94,2.76,9.76,3.18,19.84,4.84,29.97,6.26,3.24.45,5.37,2.73,5.45,6,0,.39,0,.77,0,1.16,0,9.54,0,19.07.02,28.61,0,.41.12,1.04.39,1.18,2.84,1.44,3.7,3.85,3.56,6.83-.07,1.49-.01,2.98-.01,4.54,2.11,0,4.04.1,5.96-.02,2.76-.17,4.81.72,5.89,3.4v2.09c-1.07,1.86-2.12,3.74-3.23,5.57-.37.61-.36,1.07,0,1.68,1.11,1.89,2.16,3.81,3.23,5.72v1.85ZM67.79,90.93h63.3c0-.5,0-.95,0-1.4,0-7.18,0-14.36,0-21.54,0-2.43,0-2.38-2.39-2.76-9.72-1.57-19.35-3.5-28.61-6.95-.39-.14-.92-.15-1.3,0-9.62,3.63-19.65,5.52-29.75,7.15-.95.15-1.27.42-1.27,1.42.04,7.64.02,15.29.02,22.93,0,.34,0,.68,0,1.16ZM99.43,94.93c-13.59,0-27.18,0-40.77,0-2.08,0-2.74.65-2.74,2.67,0,4.83,0,9.65,0,14.48,0,1.97.68,2.66,2.65,2.66,27.26,0,54.52,0,81.78,0,1.95,0,2.63-.7,2.63-2.68,0-4.71,0-9.42,0-14.13,0-2.44-.56-3-3-3-13.51,0-27.03,0-40.54,0ZM67.9,118.74c.05.6.08,1.1.14,1.58.82,6.21,3.55,11.53,7.68,16.15,6.36,7.13,14.4,11.77,23.17,15.26.4.16.99.07,1.42-.1,7.11-2.84,13.72-6.52,19.43-11.68,4.87-4.4,8.65-9.54,10.35-15.99.45-1.68.68-3.42,1.02-5.22h-63.21ZM63.82,90.98c0-.6,0-1.05,0-1.51,0-7.72,0-15.45,0-23.17,0-1.69.39-3.21,1.97-4.03.83-.43,1.82-.6,2.76-.75,9.94-1.66,19.82-3.51,29.3-7.09.95-.36,2.2-.21,3.24.01,1.27.26,2.46.88,3.71,1.29,8.38,2.75,17.01,4.42,25.7,5.78,3.51.55,4.55,1.73,4.55,5.31,0,7.57,0,15.14,0,22.71,0,.45,0,.9,0,1.35h3.96v-1.36c0-5.44,0-10.89,0-16.33,0-4.09,0-8.19,0-12.28,0-1.63-.54-2.18-2.15-2.43-4.72-.75-9.46-1.42-14.16-2.32-7.66-1.46-15.25-3.2-22.42-6.38-.51-.23-1.28-.12-1.84.08-2.92,1-5.76,2.21-8.71,3.09-9.01,2.69-18.26,4.19-27.54,5.52-1.91.27-2.32.76-2.32,2.74,0,9.5,0,19,0,28.5v1.24c.5.02.8.05,1.11.05.88,0,1.77,0,2.85,0ZM60.02,118.73c0,.3,0,.48,0,.67.03.46.05.93.1,1.39.94,8.19,4.43,15.2,9.93,21.23,7.81,8.56,17.57,14.1,28.36,17.95.72.26,1.71.16,2.45-.11,8.64-3.12,16.61-7.43,23.56-13.5,6.35-5.55,11.18-12.14,13.34-20.42.6-2.32.88-4.72,1.32-7.13h-4.11c-.51,7-3.04,13.13-7.35,18.5-7.08,8.81-16.43,14.34-26.81,18.33-.85.33-2.04.26-2.91-.06-8-3.03-15.37-7.17-21.72-12.99-5.73-5.25-9.96-11.45-11.61-19.19-.33-1.53-.51-3.09-.76-4.66h-3.79ZM146.92,106.83c0,1.95.02,3.8,0,5.64-.03,2.48-1.1,4.36-3.31,5.57-.28.15-.68.4-.71.65-.16,1.28-.22,2.58-.33,3.97,3.89,0,7.67,0,11.45,0,.79,0,.95-.38.55-1.04-.87-1.45-1.74-2.92-2.62-4.37-1.02-1.68-1.03-3.34,0-5.02.88-1.45,1.75-2.91,2.62-4.37.35-.58.27-1-.48-1.01-2.35-.02-4.69,0-7.18,0ZM51.96,106.82c-2.44,0-4.72,0-6.99,0-.96,0-1.03.43-.57,1.16.87,1.41,1.71,2.84,2.56,4.26.98,1.64.99,3.28,0,4.93-.75,1.26-1.53,2.5-2.25,3.78-.25.44-.35.95-.53,1.43.51.09,1.02.25,1.54.25,2.66.03,5.33.01,7.99.01h2.58c-.1-1.35-.15-2.58-.3-3.79-.04-.29-.39-.63-.68-.79-2.26-1.22-3.35-3.11-3.36-5.65-.01-1.81,0-3.62,0-5.59Z"/>
          <path class="cls-1" d="M93.38,82.42c1.89-1.9,3.55-3.57,5.21-5.24,3.03-3.03,6.05-6.06,9.09-9.08,1.03-1.02,2.22-1.07,3.05-.18.79.84.72,1.99-.26,2.97-5.09,5.11-10.19,10.21-15.31,15.3-1.16,1.16-2.15,1.14-3.31,0-1.16-1.13-2.3-2.28-3.44-3.44-1.01-1.03-1.07-2.21-.18-3.05.86-.82,1.93-.74,2.97.25.39.37.78.75,1.14,1.15.33.37.63.78,1.05,1.31Z"/>
          <path class="cls-1" d="M99.38,102.85c-5.02,0-10.04.01-15.06-.01-.6,0-1.36-.02-1.75-.37-.47-.43-.92-1.25-.84-1.83.08-.58.74-1.18,1.29-1.57.35-.25.97-.17,1.47-.17,9.96,0,19.92,0,29.88,0,.23,0,.46,0,.69,0,1.3.08,2.15.85,2.17,1.95.02,1.15-.85,1.98-2.22,1.99-5.21.02-10.42,0-15.64.01Z"/>
          <path class="cls-1" d="M99.51,106.82c3.17,0,6.33,0,9.5,0,1.07,0,1.9.38,2.21,1.47.3,1.07-.35,2.13-1.45,2.38-.41.09-.84.1-1.26.1-6.06,0-12.12,0-18.18,0-.23,0-.46,0-.69-.01-1.29-.11-2.07-.9-2.03-2.06.04-1.1.81-1.85,2.07-1.88,1.74-.04,3.47-.01,5.21-.02,1.54,0,3.09,0,4.63,0Z"/>
        </g>
      </g>
    </g>
  </g>
</svg>