<?xml version="1.0" encoding="UTF-8"?>
<svg id="Capa_2" data-name="Capa 2" xmlns="http://www.w3.org/2000/svg" viewBox="0 0 198.66 198.66">
  <defs>
    <style>
      .cls-1 {
        fill: #c9961a;
      }

      .cls-2 {
        fill: #c99619;
      }
    </style>
  </defs>
  <g id="Capa_1-2" data-name="Capa 1">
    <g>
      <path class="cls-1" d="M99.33,198.66C44.56,198.66,0,154.1,0,99.33S44.56,0,99.33,0s99.33,44.56,99.33,99.33-44.56,99.33-99.33,99.33ZM99.33,3.85C46.68,3.85,3.85,46.68,3.85,99.33s42.83,95.48,95.48,95.48,95.48-42.83,95.48-95.48S151.98,3.85,99.33,3.85Z"/>
      <g id="qKfEsN">
        <path class="cls-2" d="M156.21,64.14c-.6,2.4-2.2,4.1-3.91,5.77-3.47,3.39-6.87,6.86-10.32,10.26-.51.51-.58.89-.37,1.61.96,3.38,2.91,5.84,6.09,7.42,2.06,1.02,2.86,2.84,2.79,5.14-.08,2.7-.04,5.41-.01,8.11.02,1.95-.8,3.42-2.41,4.46-.06.04-.12.09-.19.12-3.32,1.54-5.31,4.13-6.32,7.62-.51,1.77-1.31,3.46-2.1,5.13-.47,1-.51,1.94-.24,2.98.34,1.36.58,2.75.84,4.13.29,1.57-.13,2.97-1.22,4.09-2.19,2.26-4.42,4.49-6.68,6.68-1.19,1.15-2.65,1.56-4.3,1.21-1.27-.27-2.56-.44-3.8-.78-1.17-.32-2.2-.2-3.3.29-2.94,1.29-5.94,2.47-8.89,3.75-.5.22-.99.63-1.32,1.07-.89,1.23-1.69,2.52-2.53,3.79-1.01,1.54-2.43,2.34-4.28,2.34-2.96,0-5.93,0-8.89,0-1.81,0-3.2-.79-4.2-2.29-.56-.83-1.18-1.63-1.63-2.51-.83-1.61-2.08-2.6-3.8-3.11-1.06-.31-2.16-1.29-3.05-1.1-.96.21-1.71,1.42-2.52,2.23-2.08,2.06-4.12,4.16-6.23,6.19-.45.44-1.09.81-1.7.94-8.02,1.76-16.05,3.48-24.08,5.19-3.26.69-5.74-1.79-5.05-5.05,1.72-8.03,3.44-16.06,5.2-24.08.14-.64.55-1.3,1.02-1.77,2.58-2.65,5.2-5.28,7.85-7.86.55-.54.5-.93.31-1.62-.95-3.38-2.91-5.84-6.1-7.41-2.02-.99-2.82-2.79-2.76-5.05.07-2.67.05-5.33,0-8-.03-2.08.71-3.79,2.56-4.7,3.38-1.65,5.36-4.29,6.42-7.83.58-1.94,1.54-3.76,2.27-5.66.17-.45.23-1.01.15-1.48-.27-1.6-.62-3.19-.95-4.79-.34-1.65.07-3.11,1.22-4.3,2.2-2.26,4.42-4.48,6.68-6.67,1.13-1.09,2.53-1.5,4.09-1.2.91.17,1.85.25,2.72.55,2.05.7,3.91.39,5.84-.54,2.46-1.18,5.05-2.1,7.56-3.2.54-.23,1.05-.68,1.4-1.15.9-1.22,1.69-2.52,2.53-3.78,1.02-1.53,2.43-2.32,4.29-2.31,2.93.02,5.85.01,8.78,0,1.86,0,3.27.77,4.3,2.31.1.15.23.3.3.47,1.48,3.3,4.12,5.14,7.5,6.14.65.19.98.11,1.42-.34,3.44-3.47,6.93-6.9,10.35-10.39,1.67-1.71,3.37-3.32,5.77-3.91h2.44c2.3.5,4,1.92,5.6,3.56,3.56,3.66,7.18,7.26,10.83,10.84,1.72,1.69,3.39,3.4,4.02,5.83v2.67ZM84.89,137.22c1.5.62,2.8,1.07,4,1.69.72.37,1.41.94,1.9,1.58,1,1.33,1.88,2.75,2.76,4.16.39.62.87.91,1.63.91,2.74-.03,5.48.03,8.22-.05.52-.02,1.19-.39,1.51-.82,1.02-1.36,1.85-2.86,2.87-4.22.46-.62,1.11-1.21,1.81-1.52,3.76-1.63,7.56-3.19,11.37-4.71.61-.24,1.38-.3,2.04-.19,1.75.28,3.47.75,5.23,1.01.52.08,1.26-.14,1.64-.5,1.97-1.85,3.83-3.81,5.77-5.7.58-.56.73-1.13.56-1.89-.37-1.62-.75-3.25-1-4.89-.11-.73-.1-1.58.16-2.25,1.52-3.85,3.12-7.67,4.75-11.48.26-.6.77-1.18,1.31-1.57,1.4-1.02,2.88-1.96,4.35-2.89.62-.39.92-.86.91-1.63-.04-2.74.03-5.48-.05-8.22-.02-.52-.39-1.2-.81-1.51-1.39-1.04-2.92-1.89-4.32-2.93-.59-.44-1.15-1.07-1.43-1.74-1.58-3.67-3.12-7.35-4.57-11.07-.31-.81-.37-1.8-.26-2.67.21-1.65.7-3.26.93-4.9.07-.53-.14-1.27-.5-1.65-1.88-1.99-3.82-3.93-5.81-5.81-.38-.36-1.12-.56-1.65-.48-1.64.23-3.26.7-4.9.93-.83.11-1.78.07-2.56-.22-2.7-1.02-5.29-2.34-8.02-3.23-3.09-1-5.41-2.74-6.81-5.68-.24-.5-.63-.91-.9-1.4-.36-.65-.86-.92-1.62-.91-2.74.04-5.48-.03-8.22.05-.52.02-1.2.39-1.52.81-1.04,1.39-1.89,2.92-2.93,4.32-.44.59-1.07,1.14-1.74,1.43-3.73,1.61-7.49,3.18-11.27,4.67-.71.28-1.59.3-2.36.19-1.72-.25-3.4-.72-5.12-.98-.46-.07-1.12.12-1.46.44-2.04,1.94-4.03,3.93-5.97,5.97-.33.35-.49,1.06-.41,1.56.26,1.72.72,3.4.98,5.12.11.73.04,1.56-.21,2.24-.84,2.25-2.01,4.39-2.69,6.68-1.22,4.12-3.52,7.23-7.47,9.04-.1.05-.22.1-.27.18-.29.51-.77,1.02-.79,1.55-.08,2.74-.02,5.48-.05,8.22,0,.77.3,1.23.92,1.62,1.44.91,2.89,1.81,4.25,2.83.59.44,1.1,1.08,1.43,1.74.64,1.27,1.13,2.61,1.73,4.04,1.88-1.88,3.62-3.64,5.39-5.38.44-.43.56-.81.41-1.45-1.01-4.3-1.17-8.66-.43-13.01,3.23-19.12,21.03-31.58,40.11-28.1,13.19,2.41,24.13,12.71,26.87,25.89,2.97,14.32-1.42,26.25-13.05,35.13-8.21,6.27-17.66,7.96-27.78,5.87-.37-.08-.93-.04-1.17.18-1.88,1.78-3.7,3.62-5.68,5.57ZM119.22,75.34c-2.77-2.46-5.92-4.28-9.36-5.63-.8-.32-1.3-.2-1.93.43-17.84,17.88-35.7,35.74-53.56,53.6-.23.23-.45.47-.78.83.84.18,1.55.43,2.26.46,2.35.12,3.69,1.23,4.17,3.6.31,1.52.96,2.98,1.47,4.47,19.29-19.3,38.48-38.49,57.74-57.75ZM72.91,144.06c.45-.53.67-.82.93-1.08,13.56-13.57,27.12-27.13,40.69-40.7,4.29-4.29,8.6-8.58,12.86-12.9.3-.3.58-.94.46-1.28-1.25-3.68-3.19-6.97-5.7-9.81-19.24,19.24-38.45,38.45-57.72,57.72,1.86.63,3.76,1.33,5.7,1.9,1.18.35,1.8,1.04,2,2.23.2,1.2.47,2.38.78,3.92ZM69.31,102.99c11.61-11.61,23.17-23.17,34.81-34.8-9.54-1.28-18.09,1.02-25.24,7.61-7.97,7.35-10.94,16.56-9.57,27.19ZM94.45,128.07c10.68,1.8,21.66-2.38,28.45-10.91,5.59-7.03,7.6-15.02,6.33-23.87-11.64,11.64-23.2,23.2-34.78,34.78ZM139.76,76.98c.27-.24.52-.45.75-.68,3.46-3.45,6.91-6.91,10.36-10.37,2.09-2.09,2.08-4.14-.03-6.26-4.37-4.37-8.74-8.74-13.12-13.11-2.06-2.06-4.11-2.07-6.17,0-3.49,3.47-6.97,6.96-10.45,10.44-.22.22-.41.48-.62.72,1.12.76,2.2.89,3.43.54,1.31-.37,2.68-.56,4.02-.83,1.65-.33,3.1.12,4.28,1.27,2.2,2.14,4.37,4.32,6.52,6.52,1.16,1.18,1.61,2.63,1.3,4.28-.25,1.31-.45,2.63-.8,3.91-.34,1.25-.32,2.39.54,3.57ZM69.47,146.31c-.29-1.45-.6-2.74-.79-4.05-.1-.7-.41-1.01-1.05-1.21-2.32-.74-4.62-1.54-6.94-2.27-1.04-.33-1.68-.97-2.01-2.01-.73-2.32-1.5-4.63-2.3-6.93-.13-.37-.44-.86-.76-.94-1.45-.37-2.94-.6-4.47-.9-.59,2.74-1.18,5.37-1.71,8-.06.28.12.72.33.93,3.56,3.6,7.15,7.18,10.75,10.75.22.22.65.4.93.34,2.64-.53,5.26-1.11,8.03-1.71ZM48.31,141.07c-.73,3.42-1.43,6.73-2.19,10.28,3.61-.78,6.91-1.49,10.26-2.22-2.73-2.73-5.34-5.34-8.07-8.07Z"/>
      </g>
    </g>
  </g>
</svg>